<svg width="107" height="25" viewBox="0 0 107 25" fill="none" xmlns="http://www.w3.org/2000/svg">
<g clip-path="url(#clip0_3015_22998)">
<path d="M51.1723 19.8734C51.1723 20.5301 51.0881 21.1023 50.9157 21.5863C50.7431 22.0703 50.4988 22.4871 50.1918 22.8364C49.8844 23.1858 49.5142 23.472 49.0849 23.6867C48.6514 23.9055 48.1758 24.078 47.6538 24.2044C47.132 24.3349 46.572 24.4232 45.9829 24.4695C45.3895 24.52 44.7791 24.5452 44.1438 24.5452H31.854V7.60059H43.929C44.413 7.60059 44.9014 7.62172 45.3895 7.66371C45.8778 7.70152 46.345 7.78159 46.7911 7.89099C47.2329 8.0004 47.6456 8.15617 48.0284 8.35384C48.4114 8.55179 48.744 8.80849 49.03 9.12841C49.3121 9.45252 49.5351 9.8353 49.6952 10.29C49.8551 10.7404 49.9351 11.2749 49.9351 11.8935C49.9351 12.9963 49.6615 13.8674 49.1186 14.5156C48.5757 15.1596 47.7212 15.5888 46.5513 15.8035C47.3719 15.8624 48.0791 15.9845 48.6639 16.1781C49.2532 16.3717 49.7289 16.6368 50.0991 16.9694C50.4695 17.302 50.7431 17.71 50.9157 18.1899C51.0881 18.6697 51.1723 19.2296 51.1723 19.8734ZM45.4652 12.6259C45.4652 12.4112 45.4316 12.2093 45.3683 12.0157C45.3012 11.8219 45.1832 11.6494 45.0108 11.5021C44.8381 11.3549 44.6025 11.2371 44.3077 11.1443C44.0091 11.056 43.6302 11.0097 43.1715 11.0097H36.4248V14.1915H43.1715C43.6302 14.1915 44.0091 14.1495 44.3077 14.0694C44.6025 13.9853 44.8381 13.8759 45.0108 13.7369C45.1832 13.594 45.3012 13.4298 45.3683 13.2362C45.4316 13.0426 45.4652 12.8405 45.4652 12.6259ZM46.526 19.3347C46.526 18.9519 46.4585 18.6403 46.328 18.4046C46.1976 18.1731 45.9913 17.9921 45.7136 17.8658C45.4316 17.7355 45.0697 17.6513 44.6277 17.6133C44.1816 17.5713 43.6513 17.5501 43.0369 17.5501H36.4248V21.1361H43.0369C43.6513 21.1361 44.1816 21.115 44.6277 21.073C45.0697 21.0352 45.4316 20.9467 45.7136 20.8161C45.9913 20.6859 46.1976 20.5005 46.328 20.2691C46.4585 20.0333 46.526 19.7218 46.526 19.3347Z" fill="#594B97"/>
<path d="M54.1173 24.5452V7.60059H58.6881V24.5452H54.1173Z" fill="#594B97"/>
<path d="M73.9445 7.1709C75.6069 7.1709 77.1473 7.3141 78.5743 7.59621C80.0009 7.87806 81.3099 8.24417 82.5011 8.68615V12.8276C82.0339 12.5666 81.5076 12.31 80.9184 12.0659C80.3291 11.8175 79.6895 11.5987 78.9993 11.4092C78.3091 11.2197 77.5683 11.0683 76.7813 10.9546C75.99 10.8411 75.1607 10.7821 74.2896 10.7821C73.2039 10.7821 72.2609 10.8622 71.4528 11.018C70.6489 11.1737 69.9587 11.384 69.3821 11.6451C68.8054 11.9101 68.3341 12.2131 67.9637 12.5625C67.5935 12.9118 67.3031 13.2864 67.0884 13.682C66.8737 14.0734 66.7264 14.4774 66.6423 14.8899C66.5622 15.2982 66.5202 15.6979 66.5202 16.0853C66.5202 16.4218 66.5537 16.7881 66.6252 17.1838C66.6968 17.5795 66.8274 17.9708 67.021 18.3664C67.2145 18.7621 67.4841 19.1408 67.829 19.5027C68.1742 19.8647 68.6245 20.1847 69.18 20.4624C69.7357 20.7443 70.4007 20.9674 71.1836 21.1359C71.9663 21.3042 72.8923 21.3884 73.9697 21.3884C74.5126 21.3884 74.9883 21.3713 75.3922 21.3379C75.7923 21.3042 76.1624 21.2619 76.495 21.203C76.8274 21.1443 77.1388 21.0769 77.4336 20.9927C77.7239 20.9127 78.027 20.8243 78.3385 20.736V18.6862H73.208V14.9741H82.9094V23.6316C82.303 23.8378 81.6214 24.0232 80.868 24.1915C80.1144 24.3599 79.3401 24.503 78.5361 24.625C77.7366 24.7426 76.9326 24.8353 76.1287 24.9028C75.3206 24.9658 74.5631 24.9995 73.8476 24.9995C72.7366 24.9995 71.6717 24.9236 70.6532 24.7763C69.6346 24.6291 68.6834 24.4018 67.7996 24.0947C66.9157 23.7832 66.1076 23.3916 65.3837 22.9162C64.6557 22.4405 64.0327 21.8724 63.5191 21.2159C63.0059 20.555 62.6061 19.8016 62.324 18.9516C62.042 18.1013 61.8989 17.1459 61.8989 16.0853C61.8989 15.033 62.0461 14.0777 62.3409 13.2233C62.6395 12.3689 63.0522 11.6155 63.5825 10.9546C64.1128 10.2981 64.7482 9.73 65.4931 9.25431C66.2381 8.77879 67.0547 8.38727 67.9469 8.07582C68.8392 7.76865 69.7903 7.54138 70.809 7.39417C71.8232 7.24687 72.8671 7.1709 73.9445 7.1709Z" fill="#594B97"/>
<path d="M102.202 24.5414V22.8789C101.617 23.1986 100.99 23.4808 100.321 23.7289C99.6518 23.973 98.9532 24.1835 98.2291 24.356C97.5051 24.5287 96.7602 24.659 95.9901 24.7432C95.2199 24.8317 94.4454 24.8737 93.6669 24.8737C92.7536 24.8737 91.8695 24.7854 91.0195 24.6129C90.1692 24.4402 89.4116 24.1624 88.7552 23.7752C88.0985 23.3921 87.5682 22.8871 87.1684 22.26C86.7686 21.637 86.5707 20.8712 86.5707 19.9664C86.5707 18.8257 86.8821 17.8745 87.5092 17.1169C88.1322 16.3551 89.0875 15.7321 90.3713 15.2483C91.6551 14.7643 93.2754 14.3897 95.2367 14.1245C97.1981 13.8635 99.5213 13.6573 102.202 13.5101V13.1523C102.202 12.8745 102.127 12.5967 101.979 12.3189C101.832 12.0453 101.562 11.8013 101.171 11.5907C100.784 11.3845 100.245 11.2121 99.5677 11.0815C98.8898 10.951 98.0228 10.8839 96.9707 10.8839C96.1415 10.8839 95.3209 10.9258 94.5128 11.014C93.7004 11.0983 92.9219 11.2162 92.1684 11.3634C91.4152 11.5109 90.704 11.6834 90.0261 11.8811C89.3527 12.079 88.7426 12.2852 88.1911 12.5V8.43006C88.7634 8.28276 89.4116 8.13965 90.1273 8.00064C90.8427 7.8619 91.5836 7.73957 92.3579 7.63454C93.1281 7.53342 93.9109 7.45362 94.7023 7.39032C95.4892 7.32719 96.2468 7.29785 96.9707 7.29785C98.3933 7.29785 99.7023 7.41573 100.902 7.6472C102.105 7.88277 103.137 8.24905 104.004 8.74151C104.871 9.23396 105.548 9.85668 106.041 10.6143C106.529 11.3677 106.773 12.2685 106.773 13.3121V24.5414H102.202ZM102.202 16.818C100.443 16.8855 98.9488 16.9781 97.7198 17.1002C96.4909 17.2263 95.4725 17.3695 94.656 17.5337C93.8435 17.6977 93.2038 17.8745 92.7409 18.0596C92.2737 18.2491 91.9285 18.4426 91.6971 18.6406C91.4657 18.8383 91.3266 19.0363 91.272 19.2299C91.2172 19.4276 91.1921 19.6086 91.1921 19.7728C91.1921 19.9705 91.2468 20.1599 91.3518 20.3451C91.4571 20.5303 91.6466 20.6943 91.9118 20.8334C92.1811 20.9721 92.5348 21.0815 92.9809 21.1657C93.4226 21.2458 93.9825 21.2877 94.656 21.2877C95.4051 21.2877 96.1374 21.229 96.8528 21.1152C97.5684 21.0017 98.246 20.8416 98.8858 20.6397C99.5254 20.4418 100.127 20.2019 100.691 19.9285C101.255 19.6507 101.76 19.3601 102.202 19.0445V16.818Z" fill="#F7AA47"/>
<path fill-rule="evenodd" clip-rule="evenodd" d="M4.34122 0H9.38523C11.7731 0 13.7263 1.95367 13.7263 4.34131V15.5767C13.7263 19.3518 10.6382 22.4402 6.86322 22.4402C3.08838 22.4402 0 19.3518 0 15.5767V4.34131C0 1.95367 1.95314 0 4.34122 0Z" fill="#594B97"/>
<path fill-rule="evenodd" clip-rule="evenodd" d="M3.18396 7.50622H19.7995C22.4116 7.50622 24.5485 9.64286 24.5485 12.2555V19.7991C24.5485 22.4117 22.4116 24.5483 19.7995 24.5483H4.74897C2.13691 24.5483 0 22.4117 0 19.7991V7.86012V7.50622L8.91641e-05 4.32227C8.91641e-05 6.07327 1.43296 7.50614 3.18396 7.50614V7.50622Z" fill="#F7AA47"/>
<path d="M17.7778 13.4232C17.8994 12.9687 18.3684 12.6976 18.823 12.819C19.2776 12.9403 19.5485 13.4096 19.4272 13.8642C18.994 15.4817 18.0412 16.8558 16.7798 17.824C15.5184 18.7913 13.9471 19.3554 12.2738 19.3554C10.6005 19.3554 9.02898 18.7913 7.76784 17.824C6.50644 16.8558 5.55372 15.4817 5.12047 13.8642C4.99894 13.4096 5.27 12.9403 5.72465 12.819C6.17921 12.6976 6.6483 12.9687 6.76974 13.4232C7.10286 14.6692 7.83525 15.7262 8.80161 16.4689C9.77163 17.2131 10.9826 17.6464 12.2738 17.6464C13.564 17.6464 14.776 17.2131 15.7457 16.4689C16.7123 15.7262 17.4445 14.6692 17.7778 13.4232Z" fill="#FEFEFE"/>
</g>
<defs>
<clipPath id="clip0_3015_22998">
<rect width="106.773" height="25" fill="white"/>
</clipPath>
</defs>
</svg>
