<svg width="107" height="25" viewBox="0 0 107 25" fill="none" xmlns="http://www.w3.org/2000/svg">
<g clip-path="url(#clip0_3015_22947)">
<path d="M51.1725 19.8735C51.1725 20.5302 51.0883 21.1024 50.9158 21.5864C50.7433 22.0704 50.499 22.4872 50.1919 22.8365C49.8846 23.1859 49.5144 23.4721 49.0851 23.6868C48.6515 23.9056 48.1761 24.078 47.654 24.2045C47.1322 24.335 46.5722 24.4233 45.9831 24.4697C45.3897 24.5202 44.7794 24.5452 44.1439 24.5452H31.8541V7.60059H43.9292C44.4133 7.60059 44.9015 7.62177 45.3897 7.66368C45.8781 7.70147 46.3453 7.78151 46.7914 7.89098C47.2332 8.00034 47.6459 8.15619 48.0287 8.35383C48.4117 8.55182 48.7444 8.80844 49.0303 9.12838C49.3125 9.45245 49.5353 9.83525 49.6955 10.29C49.8554 10.7405 49.9354 11.2749 49.9354 11.8935C49.9354 12.9962 49.6617 13.8674 49.1188 14.5156C48.576 15.1596 47.7215 15.5888 46.5515 15.8035C47.3722 15.8625 48.0793 15.9846 48.6642 16.1781C49.2535 16.3716 49.7292 16.6368 50.0994 16.9695C50.4698 17.302 50.7434 17.7101 50.916 18.1899C51.0884 18.6697 51.1726 19.2297 51.1726 19.8735H51.1725ZM45.4653 12.6259C45.4653 12.4112 45.4317 12.2093 45.3684 12.0158C45.3013 11.8219 45.1834 11.6494 45.0109 11.5022C44.8382 11.3549 44.6027 11.2371 44.3078 11.1443C44.0092 11.056 43.6302 11.0097 43.1716 11.0097H36.4249V14.1915H43.1716C43.6302 14.1915 44.0093 14.1494 44.3078 14.0694C44.6026 13.9852 44.8381 13.8759 45.0109 13.7368C45.1834 13.5941 45.3013 13.4297 45.3684 13.2362C45.4317 13.0427 45.4653 12.8405 45.4653 12.6259ZM46.5261 19.3347C46.5261 18.9518 46.4587 18.6404 46.3281 18.4045C46.1977 18.1731 45.9915 17.9922 45.7136 17.8657C45.4317 17.7354 45.0698 17.6513 44.6279 17.6131C44.1817 17.5712 43.6514 17.55 43.037 17.55H36.4249V21.1359H43.037C43.6514 21.1359 44.1817 21.1149 44.6279 21.0728C45.0699 21.035 45.4317 20.9465 45.7136 20.816C45.9915 20.6857 46.1977 20.5004 46.3281 20.269C46.4587 20.0331 46.5261 19.7217 46.5261 19.3346V19.3347Z" fill="white"/>
<path d="M54.1174 24.5451V7.60059H58.6883V24.5451H54.1174Z" fill="white"/>
<path d="M73.9446 7.17113C75.6071 7.17113 77.1475 7.31427 78.5745 7.5963C80.0012 7.87811 81.3101 8.24432 82.5013 8.68621V12.8277C82.0341 12.5666 81.5078 12.31 80.9186 12.066C80.3294 11.8176 79.6897 11.5988 78.9994 11.4093C78.3093 11.2198 77.5684 11.0684 76.7815 10.9547C75.9901 10.8412 75.1609 10.7822 74.2897 10.7822C73.204 10.7822 72.261 10.8623 71.4529 11.0181C70.649 11.1738 69.9589 11.3841 69.3822 11.6452C68.8055 11.9102 68.3342 12.2132 67.9637 12.5626C67.5935 12.912 67.3031 13.2865 67.0884 13.6822C66.8737 14.0736 66.7265 14.4776 66.6423 14.89C66.5623 15.2983 66.5202 15.698 66.5202 16.0854C66.5202 16.422 66.5538 16.7882 66.6252 17.1839C66.6968 17.5795 66.8273 17.9708 67.021 18.3665C67.2145 18.7621 67.4841 19.1408 67.8291 19.5027C68.1742 19.8647 68.6245 20.1846 69.18 20.4624C69.7357 20.7443 70.4008 20.9674 71.1835 21.1358C71.9663 21.3042 72.8923 21.3884 73.9697 21.3884C74.5126 21.3884 74.9883 21.3713 75.3923 21.3379C75.7924 21.3042 76.1625 21.262 76.495 21.203C76.8274 21.1444 77.1389 21.0768 77.4336 20.9926C77.7239 20.9126 78.027 20.8243 78.3385 20.736V18.6862H73.208V14.9741H82.9094V23.6316C82.3031 23.8379 81.6214 24.0231 80.868 24.1915C80.1145 24.3599 79.3402 24.5031 78.5363 24.625C77.7367 24.7427 76.9328 24.8354 76.1288 24.9028C75.3207 24.9659 74.5632 24.9996 73.8477 24.9996C72.7366 24.9996 71.6718 24.9237 70.6534 24.7764C69.6348 24.6291 68.6836 24.4018 67.7998 24.0947C66.9157 23.7832 66.1076 23.3916 65.3838 22.9162C64.6558 22.4404 64.0328 21.8723 63.5193 21.2158C63.006 20.555 62.6063 19.8016 62.3241 18.9515C62.0422 18.1012 61.899 17.1459 61.899 16.0853C61.899 15.0329 62.0463 14.0777 62.3411 13.2232C62.6397 12.3689 63.0523 11.6154 63.5827 10.9545C64.113 10.2982 64.7483 9.72997 65.4933 9.2543C66.2383 8.77874 67.0549 8.38723 67.9471 8.07576C68.8394 7.76864 69.7905 7.54134 70.8092 7.39408C71.8234 7.24682 72.8673 7.1709 73.9447 7.1709L73.9446 7.17113Z" fill="white"/>
<path d="M102.202 24.541V22.8786C101.618 23.1983 100.991 23.4804 100.321 23.7287C99.6522 23.9727 98.9535 24.1833 98.2294 24.3558C97.5055 24.5284 96.7605 24.6588 95.9906 24.7429C95.2204 24.8314 94.4458 24.8735 93.6672 24.8735C92.7539 24.8735 91.8699 24.7851 91.0199 24.6126C90.1696 24.4399 89.4119 24.162 88.7556 23.775C88.0988 23.3919 87.5687 22.8869 87.1688 22.2598C86.7689 21.6368 86.571 20.871 86.571 19.9661C86.571 18.8255 86.8825 17.8742 87.5096 17.1166C88.1325 16.3549 89.0879 15.7319 90.3716 15.2481C91.6554 14.764 93.2757 14.3895 95.2371 14.1244C97.1984 13.8634 99.5217 13.6572 102.202 13.5099V13.1521C102.202 12.8743 102.127 12.5965 101.98 12.3188C101.832 12.0451 101.563 11.8011 101.171 11.5906C100.784 11.3844 100.246 11.2119 99.568 11.0814C98.8902 10.9508 98.0231 10.8837 96.971 10.8837C96.1418 10.8837 95.3211 10.9257 94.5131 11.0139C93.7008 11.0982 92.9222 11.216 92.1688 11.3633C91.4156 11.5109 90.7043 11.6834 90.0265 11.881C89.3531 12.079 88.743 12.2852 88.1915 12.4999V8.43001C88.7637 8.28275 89.4119 8.13962 90.1276 8.0006C90.8431 7.86181 91.584 7.73952 92.3583 7.63463C93.1285 7.5334 93.9114 7.45359 94.7027 7.39026C95.4896 7.32717 96.2473 7.29785 96.9711 7.29785C98.3937 7.29785 99.7027 7.41568 100.902 7.64722C102.106 7.88277 103.137 8.24909 104.004 8.74148C104.871 9.23399 105.549 9.8567 106.041 10.6143C106.53 11.3678 106.774 12.2685 106.774 13.3122V24.5414H102.203L102.202 24.541ZM102.202 16.8177C100.443 16.8851 98.9492 16.9777 97.7202 17.0998C96.4913 17.2259 95.4729 17.369 94.6564 17.5332C93.8439 17.6972 93.2042 17.8741 92.7413 18.0592C92.2741 18.2487 91.929 18.4422 91.6974 18.6402C91.466 18.8379 91.327 19.0358 91.2724 19.2295C91.2175 19.4271 91.1923 19.6082 91.1923 19.7723C91.1923 19.97 91.2472 20.1595 91.3522 20.3446C91.4575 20.5299 91.6469 20.6938 91.9122 20.8329C92.1815 20.9716 92.5351 21.0811 92.9812 21.1653C93.4229 21.2453 93.9828 21.2872 94.6564 21.2872C95.4055 21.2872 96.1378 21.2286 96.8533 21.1148C97.569 21.0013 98.2465 20.8411 98.8862 20.6392C99.5258 20.4412 100.128 20.2013 100.692 19.928C101.256 19.6502 101.761 19.3596 102.203 19.044V16.8174L102.202 16.8177Z" fill="#F7AA47"/>
<path fill-rule="evenodd" clip-rule="evenodd" d="M4.3412 0.00011451H9.38526C11.7731 0.00011451 13.7263 1.95366 13.7263 4.34131V10.5029C13.7263 15.6138 1.23946 11.165 0 9.01826V4.3412C0 1.95355 1.95309 0 4.3412 0V0.00011451Z" fill="white"/>
<path fill-rule="evenodd" clip-rule="evenodd" d="M3.18396 7.50611H19.7995C22.4116 7.50611 24.5485 9.64276 24.5485 12.2553V19.799C24.5485 22.4116 22.4116 24.5482 19.7995 24.5482H4.74897C2.13688 24.5482 0 22.4116 0 19.799V7.86006V7.50622L0.00011451 4.32227C0.00011451 6.07324 1.43298 7.50611 3.18396 7.50611ZM17.778 13.4234C17.8994 12.9688 18.3685 12.6978 18.8231 12.8193C19.2777 12.9405 19.5485 13.4098 19.4272 13.8644C18.9941 15.4819 18.0413 16.856 16.7799 17.8242C15.5184 18.7916 13.9471 19.3555 12.2739 19.3555C10.6006 19.3555 9.02902 18.7914 7.76792 17.8242C6.50647 16.856 5.55375 15.4819 5.12056 13.8644C4.99906 13.4098 5.27011 12.9405 5.72471 12.8193C6.17932 12.6978 6.64835 12.9689 6.76985 13.4234C7.10296 14.6694 7.83537 15.7263 8.80172 16.4691C9.77174 17.2133 10.9827 17.6465 12.2739 17.6465C13.5641 17.6465 14.7761 17.2133 15.7457 16.4691C16.7123 15.7263 17.4445 14.6694 17.7778 13.4234H17.778Z" fill="#F7AA47"/>
</g>
<defs>
<clipPath id="clip0_3015_22947">
<rect width="106.773" height="25" fill="white"/>
</clipPath>
</defs>
</svg>
